<svg viewBox="0 0 131 111" fill="none" xmlns="http://www.w3.org/2000/svg">
<path d="M86 0H130.5V42.5L118.5 31.0393V11H97.5176L86 0Z" fill="white"/>
<path fill-rule="evenodd" clip-rule="evenodd" d="M62.2851 24.7056V95.7056H74.7973V80.2472L100.884 110.706H116.111L88.4899 78.6944V77.7389L112.924 51.4611H97.2248L74.7973 76.3055V24.7056H62.2851Z" fill="white"/>
<path fill-rule="evenodd" clip-rule="evenodd" d="M0 84.9054V55L12.5122 68V84.9054H19.3585C28.959 84.9054 35.884 82.198 40.1334 76.7832C44.3828 71.2888 46.5075 63.9629 46.5075 54.8054C46.5075 45.648 44.3828 38.362 40.1334 32.9472C35.884 27.4528 28.959 24.7056 19.3585 24.7056H12.5122L0 13H19.8306C33.1297 13 43.0057 16.7426 49.4585 24.2278C55.9113 31.6333 59.1378 41.8258 59.1378 54.8054C59.1378 67.7851 55.9113 78.0175 49.4585 85.5027C43.0057 92.9082 33.1297 96.611 19.8306 96.611H0V84.9054Z" fill="white"/>
<path d="M12.5122 37.7054L0 24.7056V43L12.5122 56V37.7054Z" fill="white"/>
</svg>
