<svg width="600" height="128" viewBox="0 0 600 128" fill="none" xmlns="http://www.w3.org/2000/svg">
<g clip-path="url(#clip0_1_2)">
<path d="M58.15 75.89C55.5833 75.89 53.4567 75.12 51.77 73.58C50.1567 72.04 49.35 70.0967 49.35 67.75C49.35 65.4033 50.1567 63.4967 51.77 62.03C53.4567 60.49 55.5833 59.72 58.15 59.72C60.7167 59.72 62.8067 60.49 64.42 62.03C66.1067 63.4967 66.95 65.4033 66.95 67.75C66.95 70.0967 66.1067 72.04 64.42 73.58C62.8067 75.12 60.7167 75.89 58.15 75.89ZM40 163.12V151.13H44.29C46.71 151.13 48.4333 150.653 49.46 149.7C50.4867 148.747 51 147.133 51 144.86V84.36H65.08V144.86C65.08 151.46 63.3933 156.153 60.02 158.94C56.72 161.727 52.21 163.12 46.49 163.12H40Z" fill="white"/>
<path d="M89.2336 140.24C82.4136 140.24 77.1336 138.113 73.3936 133.86C69.7269 129.607 67.8936 123.373 67.8936 115.16V84.36H81.8636V113.84C81.8636 118.533 82.8169 122.127 84.7236 124.62C86.6303 127.113 89.6369 128.36 93.7436 128.36C97.6303 128.36 100.82 126.967 103.314 124.18C105.88 121.393 107.164 117.507 107.164 112.52V84.36H121.244V138.92H108.814L107.714 129.68C106.027 132.907 103.57 135.473 100.344 137.38C97.1903 139.287 93.4869 140.24 89.2336 140.24Z" fill="white"/>
<path d="M143.507 140.24C138.814 140.24 134.964 139.507 131.957 138.04C128.951 136.5 126.714 134.483 125.247 131.99C123.781 129.497 123.047 126.747 123.047 123.74C123.047 118.68 125.027 114.573 128.987 111.42C132.947 108.267 138.887 106.69 146.807 106.69H160.667V105.37C160.667 101.63 159.604 98.88 157.477 97.12C155.351 95.36 152.711 94.48 149.557 94.48C146.697 94.48 144.204 95.1767 142.077 96.57C139.951 97.89 138.631 99.87 138.117 102.51H124.367C124.734 98.55 126.054 95.1033 128.327 92.17C130.674 89.2367 133.681 87 137.347 85.46C141.014 83.8467 145.121 83.04 149.667 83.04C157.441 83.04 163.564 84.9833 168.037 88.87C172.511 92.7567 174.747 98.2567 174.747 105.37V138.92H162.757L161.437 130.12C159.824 133.053 157.551 135.473 154.617 137.38C151.757 139.287 148.054 140.24 143.507 140.24ZM146.697 129.24C150.731 129.24 153.847 127.92 156.047 125.28C158.321 122.64 159.751 119.377 160.337 115.49H148.347C144.607 115.49 141.931 116.187 140.317 117.58C138.704 118.9 137.897 120.55 137.897 122.53C137.897 124.657 138.704 126.307 140.317 127.48C141.931 128.653 144.057 129.24 146.697 129.24Z" fill="white"/>
<path d="M177.184 138.92V84.36H189.614L190.714 93.6C192.4 90.3733 194.82 87.8067 197.974 85.9C201.2 83.9933 204.977 83.04 209.304 83.04C216.05 83.04 221.294 85.1667 225.034 89.42C228.774 93.6733 230.644 99.9067 230.644 108.12V138.92H216.564V109.44C216.564 104.747 215.61 101.153 213.704 98.66C211.797 96.1667 208.827 94.92 204.794 94.92C200.834 94.92 197.57 96.3133 195.004 99.1C192.51 101.887 191.264 105.773 191.264 110.76V138.92H177.184Z" fill="white"/>
<path d="M259.618 140.24C254.118 140.24 249.241 139.067 244.988 136.72C240.734 134.373 237.398 131.073 234.978 126.82C232.558 122.567 231.348 117.653 231.348 112.08C231.348 106.433 232.521 101.41 234.868 97.01C237.288 92.61 240.588 89.2 244.768 86.78C249.021 84.2867 254.008 83.04 259.728 83.04C265.081 83.04 269.811 84.2133 273.918 86.56C278.024 88.9067 281.214 92.1333 283.488 96.24C285.834 100.273 287.008 104.783 287.008 109.77C287.008 110.577 286.971 111.42 286.898 112.3C286.898 113.18 286.861 114.097 286.788 115.05H245.318C245.611 119.303 247.078 122.64 249.718 125.06C252.431 127.48 255.694 128.69 259.508 128.69C262.368 128.69 264.751 128.067 266.658 126.82C268.638 125.5 270.104 123.813 271.058 121.76H285.358C284.331 125.207 282.608 128.36 280.188 131.22C277.841 134.007 274.908 136.207 271.388 137.82C267.941 139.433 264.018 140.24 259.618 140.24ZM259.728 94.48C256.281 94.48 253.238 95.47 250.598 97.45C247.958 99.3567 246.271 102.29 245.538 106.25H272.708C272.488 102.657 271.168 99.7967 268.748 97.67C266.328 95.5433 263.321 94.48 259.728 94.48Z" fill="white"/>
<path d="M311.193 138.92C305.473 138.92 300.89 137.527 297.443 134.74C293.996 131.953 292.273 127.003 292.273 119.89V96.13H282.923V84.36H292.273L293.923 69.73H306.353V84.36H321.093V96.13H306.353V120C306.353 122.64 306.903 124.473 308.003 125.5C309.176 126.453 311.156 126.93 313.943 126.93H320.763V138.92H311.193Z" fill="white"/>
<path d="M322.182 138.92V59.72H336.262V92.72C338.095 89.7133 340.552 87.3667 343.632 85.68C346.785 83.92 350.378 83.04 354.412 83.04C361.158 83.04 366.365 85.1667 370.032 89.42C373.772 93.6733 375.642 99.9067 375.642 108.12V138.92H361.672V109.44C361.672 104.747 360.718 101.153 358.812 98.66C356.978 96.1667 354.045 94.92 350.012 94.92C346.052 94.92 342.752 96.3133 340.112 99.1C337.545 101.887 336.262 105.773 336.262 110.76V138.92H322.182Z" fill="white"/>
<path d="M384.156 139.69C381.589 139.69 379.462 138.883 377.776 137.27C376.162 135.657 375.356 133.713 375.356 131.44C375.356 129.093 376.162 127.113 377.776 125.5C379.462 123.887 381.589 123.08 384.156 123.08C386.722 123.08 388.812 123.887 390.426 125.5C392.112 127.113 392.956 129.093 392.956 131.44C392.956 133.713 392.112 135.657 390.426 137.27C388.812 138.883 386.722 139.69 384.156 139.69Z" fill="white"/>
<path d="M418.611 140.24C413.478 140.24 408.895 138.993 404.861 136.5C400.828 134.007 397.638 130.597 395.291 126.27C392.945 121.943 391.771 117.03 391.771 111.53C391.771 106.03 392.945 101.153 395.291 96.9C397.638 92.5733 400.828 89.2 404.861 86.78C408.895 84.2867 413.478 83.04 418.611 83.04C422.718 83.04 426.311 83.81 429.391 85.35C432.471 86.89 434.965 89.0533 436.871 91.84V59.72H450.951V138.92H438.411L436.871 131.11C435.111 133.53 432.765 135.657 429.831 137.49C426.971 139.323 423.231 140.24 418.611 140.24ZM421.581 127.92C426.128 127.92 429.831 126.417 432.691 123.41C435.625 120.33 437.091 116.407 437.091 111.64C437.091 106.873 435.625 102.987 432.691 99.98C429.831 96.9 426.128 95.36 421.581 95.36C417.108 95.36 413.405 96.8633 410.471 99.87C407.538 102.877 406.071 106.763 406.071 111.53C406.071 116.297 407.538 120.22 410.471 123.3C413.405 126.38 417.108 127.92 421.581 127.92Z" fill="white"/>
<path d="M480.799 140.24C475.299 140.24 470.423 139.067 466.169 136.72C461.916 134.373 458.579 131.073 456.159 126.82C453.739 122.567 452.529 117.653 452.529 112.08C452.529 106.433 453.703 101.41 456.049 97.01C458.469 92.61 461.769 89.2 465.949 86.78C470.203 84.2867 475.189 83.04 480.909 83.04C486.263 83.04 490.993 84.2133 495.099 86.56C499.206 88.9067 502.396 92.1333 504.669 96.24C507.016 100.273 508.189 104.783 508.189 109.77C508.189 110.577 508.153 111.42 508.079 112.3C508.079 113.18 508.043 114.097 507.969 115.05H466.499C466.793 119.303 468.259 122.64 470.899 125.06C473.613 127.48 476.876 128.69 480.689 128.69C483.549 128.69 485.933 128.067 487.839 126.82C489.819 125.5 491.286 123.813 492.239 121.76H506.539C505.513 125.207 503.789 128.36 501.369 131.22C499.023 134.007 496.089 136.207 492.569 137.82C489.123 139.433 485.199 140.24 480.799 140.24ZM480.909 94.48C477.463 94.48 474.419 95.47 471.779 97.45C469.139 99.3567 467.453 102.29 466.719 106.25H493.889C493.669 102.657 492.349 99.7967 489.929 97.67C487.509 95.5433 484.503 94.48 480.909 94.48Z" fill="white"/>
<path d="M521.623 138.92L501.603 84.36H516.343L530.203 125.61L544.063 84.36H558.803L538.673 138.92H521.623Z" fill="white"/>
<path d="M55.686 43.352C54.15 43.352 52.89 43.112 51.906 42.632C50.922 42.128 50.19 41.468 49.71 40.652C49.23 39.836 48.99 38.936 48.99 37.952C48.99 36.296 49.638 34.952 50.934 33.92C52.23 32.888 54.174 32.372 56.766 32.372H61.302V31.94C61.302 30.716 60.954 29.816 60.258 29.24C59.562 28.664 58.698 28.376 57.666 28.376C56.73 28.376 55.914 28.604 55.218 29.06C54.522 29.492 54.09 30.14 53.922 31.004H49.422C49.542 29.708 49.974 28.58 50.718 27.62C51.486 26.66 52.47 25.928 53.67 25.424C54.87 24.896 56.214 24.632 57.702 24.632C60.246 24.632 62.25 25.268 63.714 26.54C65.178 27.812 65.91 29.612 65.91 31.94V42.92H61.986L61.554 40.04C61.026 41 60.282 41.792 59.322 42.416C58.386 43.04 57.174 43.352 55.686 43.352ZM56.73 39.752C58.05 39.752 59.07 39.32 59.79 38.456C60.534 37.592 61.002 36.524 61.194 35.252H57.27C56.046 35.252 55.17 35.48 54.642 35.936C54.114 36.368 53.85 36.908 53.85 37.556C53.85 38.252 54.114 38.792 54.642 39.176C55.17 39.56 55.866 39.752 56.73 39.752Z" fill="white"/>
<path d="M401.446 50.84V25.064H405.55L406.054 27.62C406.63 26.828 407.386 26.132 408.322 25.532C409.282 24.932 410.518 24.632 412.03 24.632C413.71 24.632 415.21 25.04 416.53 25.856C417.85 26.672 418.894 27.788 419.662 29.204C420.43 30.62 420.814 32.228 420.814 34.028C420.814 35.828 420.43 37.436 419.662 38.852C418.894 40.244 417.85 41.348 416.53 42.164C415.21 42.956 413.71 43.352 412.03 43.352C410.686 43.352 409.51 43.1 408.502 42.596C407.494 42.092 406.678 41.384 406.054 40.472V50.84H401.446ZM411.058 39.32C412.522 39.32 413.734 38.828 414.694 37.844C415.654 36.86 416.134 35.588 416.134 34.028C416.134 32.468 415.654 31.184 414.694 30.176C413.734 29.168 412.522 28.664 411.058 28.664C409.57 28.664 408.346 29.168 407.386 30.176C406.45 31.16 405.982 32.432 405.982 33.992C405.982 35.552 406.45 36.836 407.386 37.844C408.346 38.828 409.57 39.32 411.058 39.32Z" fill="white"/>
<path d="M421.33 42.92V25.064H425.434L425.866 28.412C426.514 27.26 427.39 26.348 428.494 25.676C429.622 24.98 430.942 24.632 432.454 24.632V29.492H431.158C430.15 29.492 429.25 29.648 428.458 29.96C427.666 30.272 427.042 30.812 426.586 31.58C426.154 32.348 425.938 33.416 425.938 34.784V42.92H421.33Z" fill="white"/>
<path d="M440.255 43.352C438.527 43.352 436.967 42.956 435.575 42.164C434.207 41.372 433.115 40.28 432.299 38.888C431.507 37.472 431.111 35.84 431.111 33.992C431.111 32.144 431.519 30.524 432.335 29.132C433.151 27.716 434.243 26.612 435.611 25.82C437.003 25.028 438.563 24.632 440.291 24.632C441.995 24.632 443.531 25.028 444.899 25.82C446.291 26.612 447.383 27.716 448.175 29.132C448.991 30.524 449.399 32.144 449.399 33.992C449.399 35.84 448.991 37.472 448.175 38.888C447.383 40.28 446.291 41.372 444.899 42.164C443.507 42.956 441.959 43.352 440.255 43.352ZM440.255 39.356C441.455 39.356 442.499 38.912 443.387 38.024C444.275 37.112 444.719 35.768 444.719 33.992C444.719 32.216 444.275 30.884 443.387 29.996C442.499 29.084 441.467 28.628 440.291 28.628C439.067 28.628 438.011 29.084 437.123 29.996C436.259 30.884 435.827 32.216 435.827 33.992C435.827 35.768 436.259 37.112 437.123 38.024C438.011 38.912 439.055 39.356 440.255 39.356Z" fill="white"/>
<path d="M458.127 43.352C456.447 43.352 454.947 42.944 453.627 42.128C452.307 41.312 451.263 40.196 450.495 38.78C449.727 37.364 449.343 35.756 449.343 33.956C449.343 32.156 449.727 30.56 450.495 29.168C451.263 27.752 452.307 26.648 453.627 25.856C454.947 25.04 456.447 24.632 458.127 24.632C459.471 24.632 460.647 24.884 461.655 25.388C462.663 25.892 463.479 26.6 464.103 27.512V17H468.711V42.92H464.607L464.103 40.364C463.527 41.156 462.759 41.852 461.799 42.452C460.863 43.052 459.639 43.352 458.127 43.352ZM459.099 39.32C460.587 39.32 461.799 38.828 462.735 37.844C463.695 36.836 464.175 35.552 464.175 33.992C464.175 32.432 463.695 31.16 462.735 30.176C461.799 29.168 460.587 28.664 459.099 28.664C457.635 28.664 456.423 29.156 455.463 30.14C454.503 31.124 454.023 32.396 454.023 33.956C454.023 35.516 454.503 36.8 455.463 37.808C456.423 38.816 457.635 39.32 459.099 39.32Z" fill="white"/>
<path d="M476.499 43.352C474.267 43.352 472.539 42.656 471.315 41.264C470.115 39.872 469.515 37.832 469.515 35.144V25.064H474.087V34.712C474.087 36.248 474.399 37.424 475.023 38.24C475.647 39.056 476.631 39.464 477.975 39.464C479.247 39.464 480.291 39.008 481.107 38.096C481.947 37.184 482.367 35.912 482.367 34.28V25.064H486.975V42.92H482.907L482.547 39.896C481.995 40.952 481.191 41.792 480.135 42.416C479.103 43.04 477.891 43.352 476.499 43.352Z" fill="white"/>
<path d="M496.854 43.352C495.03 43.352 493.422 42.956 492.03 42.164C490.638 41.372 489.534 40.268 488.718 38.852C487.926 37.436 487.53 35.816 487.53 33.992C487.53 32.168 487.926 30.548 488.718 29.132C489.534 27.716 490.638 26.612 492.03 25.82C493.422 25.028 495.03 24.632 496.854 24.632C499.134 24.632 501.054 25.232 502.614 26.432C504.174 27.608 505.17 29.24 505.602 31.328H500.742C500.502 30.464 500.022 29.792 499.302 29.312C498.606 28.808 497.778 28.556 496.818 28.556C495.546 28.556 494.466 29.036 493.578 29.996C492.69 30.956 492.246 32.288 492.246 33.992C492.246 35.696 492.69 37.028 493.578 37.988C494.466 38.948 495.546 39.428 496.818 39.428C497.778 39.428 498.606 39.188 499.302 38.708C500.022 38.228 500.502 37.544 500.742 36.656H505.602C505.17 38.672 504.174 40.292 502.614 41.516C501.054 42.74 499.134 43.352 496.854 43.352Z" fill="white"/>
<path d="M513.802 42.92C511.93 42.92 510.43 42.464 509.302 41.552C508.174 40.64 507.61 39.02 507.61 36.692V28.916H504.55V25.064H507.61L508.15 20.276H512.218V25.064H517.042V28.916H512.218V36.728C512.218 37.592 512.398 38.192 512.758 38.528C513.142 38.84 513.79 38.996 514.702 38.996H516.934V42.92H513.802Z" fill="white"/>
<path d="M519.882 22.292C519.042 22.292 518.346 22.04 517.794 21.536C517.266 21.032 517.002 20.396 517.002 19.628C517.002 18.86 517.266 18.236 517.794 17.756C518.346 17.252 519.042 17 519.882 17C520.722 17 521.406 17.252 521.934 17.756C522.486 18.236 522.762 18.86 522.762 19.628C522.762 20.396 522.486 21.032 521.934 21.536C521.406 22.04 520.722 22.292 519.882 22.292ZM517.578 42.92V25.064H522.186V42.92H517.578Z" fill="white"/>
<path d="M531.964 43.352C530.236 43.352 528.676 42.956 527.284 42.164C525.916 41.372 524.824 40.28 524.008 38.888C523.216 37.472 522.82 35.84 522.82 33.992C522.82 32.144 523.228 30.524 524.044 29.132C524.86 27.716 525.952 26.612 527.32 25.82C528.712 25.028 530.272 24.632 532 24.632C533.704 24.632 535.24 25.028 536.608 25.82C538 26.612 539.092 27.716 539.884 29.132C540.7 30.524 541.108 32.144 541.108 33.992C541.108 35.84 540.7 37.472 539.884 38.888C539.092 40.28 538 41.372 536.608 42.164C535.216 42.956 533.668 43.352 531.964 43.352ZM531.964 39.356C533.164 39.356 534.208 38.912 535.096 38.024C535.984 37.112 536.428 35.768 536.428 33.992C536.428 32.216 535.984 30.884 535.096 29.996C534.208 29.084 533.176 28.628 532 28.628C530.776 28.628 529.72 29.084 528.832 29.996C527.968 30.884 527.536 32.216 527.536 33.992C527.536 35.768 527.968 37.112 528.832 38.024C529.72 38.912 530.764 39.356 531.964 39.356Z" fill="white"/>
<path d="M541.628 42.92V25.064H545.696L546.056 28.088C546.608 27.032 547.4 26.192 548.432 25.568C549.488 24.944 550.724 24.632 552.14 24.632C554.348 24.632 556.064 25.328 557.288 26.72C558.512 28.112 559.124 30.152 559.124 32.84V42.92H554.516V33.272C554.516 31.736 554.204 30.56 553.58 29.744C552.956 28.928 551.984 28.52 550.664 28.52C549.368 28.52 548.3 28.976 547.46 29.888C546.644 30.8 546.236 32.072 546.236 33.704V42.92H541.628Z" fill="white"/>
</g>
<defs>
<clipPath id="clip0_1_2">
<path d="M0 10C0 4.47715 4.47715 0 10 0H590C595.523 0 600 4.47715 600 10V128H0V10Z" fill="white"/>
</clipPath>
</defs>
</svg>
